<?xml version="1.0" standalone="no"?>
<!DOCTYPE svg PUBLIC "-//W3C//DTD SVG 20010904//EN"
 "http://www.w3.org/TR/2001/REC-SVG-20010904/DTD/svg10.dtd">
<svg version="1.0" xmlns="http://www.w3.org/2000/svg"
 width="1024.000000pt" height="1024.000000pt" viewBox="0 0 1024.000000 1024.000000"
 preserveAspectRatio="xMidYMid meet">

<g transform="translate(0.000000,1024.000000) scale(0.100000,-0.100000)"
fill="#000000" stroke="none">
<path d="M5045 10081 c-33 -21 -127 -78 -210 -126 -82 -49 -215 -128 -295
-176 -80 -48 -188 -111 -240 -142 -204 -118 -439 -256 -525 -309 -49 -30 -169
-101 -265 -158 -239 -140 -684 -404 -860 -510 -412 -247 -1188 -709 -1350
-805 -102 -59 -203 -120 -225 -135 l-40 -28 3 -491 2 -491 80 0 80 0 2 452 3
452 135 79 c74 44 209 123 300 177 91 53 282 166 425 250 143 84 332 197 420
250 199 121 385 231 630 375 105 62 235 139 290 172 55 33 318 190 585 349
267 158 618 367 780 464 162 97 309 184 326 193 l30 16 165 -99 c90 -54 193
-116 229 -136 36 -21 281 -167 545 -324 264 -158 604 -360 755 -450 151 -90
356 -212 455 -270 242 -144 531 -313 580 -338 l40 -21 -154 -1 -154 0 21 -23
c21 -22 22 -32 22 -200 0 -164 -2 -179 -20 -197 -11 -11 -20 -22 -20 -25 0 -3
72 -5 159 -5 l159 0 11 31 c6 18 11 42 11 55 0 22 -2 21 -33 -13 -32 -34 -36
-36 -103 -37 l-69 -1 0 90 0 90 44 -2 c24 -1 51 -9 60 -18 26 -22 28 -20 28
35 0 34 -4 50 -13 50 -7 0 -16 -4 -19 -10 -3 -5 -28 -10 -56 -10 l-49 0 0 70
0 70 71 0 c57 0 77 -4 101 -22 l31 -21 -7 37 -7 37 33 -17 c32 -16 589 -345
658 -388 19 -12 42 -25 50 -29 8 -3 98 -57 200 -120 l185 -113 3 -452 2 -452
80 0 80 0 1 448 c0 246 1 469 1 495 0 26 -1 50 -3 51 -6 5 -445 265 -677 402
-111 65 -309 182 -440 260 -130 77 -349 207 -487 289 -137 81 -369 218 -515
305 -146 86 -400 237 -565 335 -165 98 -379 225 -475 283 -406 243 -905 535
-919 538 -9 2 -43 -14 -76 -35z"/>
<path d="M2572 8296 c-54 -18 -104 -56 -132 -101 -25 -41 -31 -157 -12 -216
15 -43 74 -103 124 -124 44 -18 116 -20 169 -4 147 44 206 243 109 362 -66 78
-169 112 -258 83z m112 -40 c51 -21 86 -99 86 -190 -1 -150 -81 -225 -176
-167 -46 28 -78 115 -71 198 6 80 32 133 77 155 42 22 42 22 84 4z"/>
<path d="M3164 8291 c-46 -28 -64 -59 -64 -111 0 -56 17 -82 78 -116 93 -53
123 -75 132 -99 23 -60 -43 -107 -110 -79 -37 16 -55 35 -75 81 -8 17 -18 34
-22 36 -13 9 -2 -131 11 -142 7 -6 45 -14 84 -17 122 -11 184 25 198 115 12
74 -15 110 -126 165 -72 36 -90 53 -90 87 0 21 7 32 30 44 42 21 78 10 123
-38 l37 -41 0 55 0 56 -39 11 c-59 18 -131 15 -167 -7z"/>
<path d="M4301 8300 c-124 -4 -142 -7 -128 -19 15 -12 17 -39 17 -204 0 -164
-2 -193 -17 -209 -16 -18 -12 -18 142 -16 l159 3 13 44 c7 25 11 47 8 49 -2 2
-18 -7 -35 -21 -32 -28 -87 -47 -133 -47 -36 0 -48 31 -43 113 l3 62 45 3 c31
2 49 -2 58 -13 21 -26 30 -17 30 30 0 42 -2 45 -22 41 -82 -17 -97 -17 -106 1
-4 10 -8 43 -8 73 l1 55 64 3 c54 3 70 -1 94 -19 l29 -21 -7 43 c-4 24 -10 46
-14 49 -3 3 -71 3 -150 0z"/>
<path d="M4838 8292 c-90 -42 -139 -118 -140 -216 -1 -76 24 -139 75 -183 43
-38 91 -53 168 -53 67 0 126 33 179 101 32 40 35 49 38 124 3 74 1 84 -28 132
-41 71 -96 103 -187 108 -51 4 -77 1 -105 -13z m161 -53 c74 -69 79 -256 9
-328 -24 -24 -39 -31 -70 -31 -56 0 -91 29 -118 95 -40 98 -13 240 51 272 39
20 102 16 128 -8z"/>
<path d="M3586 8263 c-12 -74 -9 -79 26 -44 26 25 40 31 75 31 l43 0 0 -184
c0 -179 -1 -184 -22 -199 -22 -15 -17 -16 72 -16 52 0 88 3 80 6 -35 14 -39
36 -40 217 l0 179 46 -6 c28 -3 54 -13 70 -28 31 -29 37 -22 29 35 l-7 46
-183 0 -182 0 -7 -37z"/>
<path d="M5370 8291 c0 -5 6 -11 13 -13 9 -4 13 -54 15 -195 3 -187 3 -192
-19 -212 l-23 -21 95 0 c93 1 94 1 67 18 -26 16 -28 21 -28 89 l0 73 58 0 c67
0 133 27 157 64 26 39 29 95 8 136 -30 57 -68 70 -215 70 -71 0 -128 -4 -128
-9z m231 -60 c31 -32 38 -75 17 -114 -18 -35 -40 -46 -85 -47 l-43 0 0 95 0
95 41 0 c31 0 47 -6 70 -29z"/>
<path d="M5984 8197 c-42 -135 -101 -296 -120 -324 -14 -23 -14 -23 41 -23 52
0 55 1 40 16 -9 9 -14 22 -12 28 2 6 10 28 18 49 7 21 20 37 29 37 8 1 31 3
50 6 59 8 83 -7 102 -64 10 -34 12 -54 6 -60 -7 -7 15 -11 66 -14 42 -2 76 -1
76 1 0 2 -10 15 -23 30 -17 21 -128 299 -162 409 -3 7 -21 12 -42 12 l-38 0
-31 -103z m103 -148 c4 -14 -4 -18 -47 -20 -28 -2 -53 -3 -54 -2 -1 1 9 38 23
82 l26 79 23 -61 c13 -34 26 -69 29 -78z"/>
<path d="M6386 8284 c-3 -9 -6 -37 -6 -62 l1 -47 28 34 c23 28 36 34 79 39
l52 5 0 -155 c0 -187 -4 -209 -38 -231 -26 -16 -24 -16 67 -17 l94 0 -21 23
c-22 23 -22 30 -20 198 l3 174 37 3 c37 3 80 -16 105 -48 10 -12 12 -9 13 20
0 19 -3 45 -6 58 -6 22 -8 22 -194 22 -162 0 -189 -2 -194 -16z"/>
<path d="M6960 8291 c0 -5 7 -14 16 -21 13 -12 15 -40 12 -196 -3 -156 -5
-185 -20 -201 -10 -11 -18 -21 -18 -24 0 -2 37 -2 82 -1 68 3 80 6 66 16 -20
15 -21 20 -19 124 l1 83 93 -3 92 -3 3 -87 c2 -77 0 -90 -18 -108 l-20 -20 81
0 80 0 -18 24 c-17 21 -19 43 -18 204 0 162 2 182 19 201 l19 21 -77 0 -77 0
15 -22 c11 -15 16 -46 16 -96 l0 -73 -97 3 -98 3 -3 69 c-2 49 1 75 13 92 l15
24 -70 0 c-38 0 -70 -4 -70 -9z"/>
<path d="M5478 7511 c-61 -12 -129 -61 -155 -110 -17 -33 -23 -60 -23 -109 0
-85 27 -141 91 -192 80 -63 182 -66 280 -7 92 55 128 158 95 270 -13 44 -26
63 -59 91 -23 19 -54 39 -67 44 -39 15 -121 21 -162 13z m119 -61 c43 -26 65
-71 71 -146 12 -150 -78 -248 -181 -199 -63 30 -98 145 -75 249 21 99 107 144
185 96z"/>
<path d="M4402 7504 c-9 -4 -5 -12 13 -26 25 -19 25 -20 25 -187 0 -153 -2
-171 -20 -194 -11 -14 -20 -28 -20 -31 0 -10 207 -6 260 5 63 13 127 61 159
118 18 32 23 57 23 107 -1 84 -29 137 -95 178 -47 29 -53 30 -190 33 -78 1
-148 0 -155 -3z m256 -54 c57 -26 86 -87 80 -169 -8 -113 -61 -175 -150 -176
l-52 0 -4 168 c-2 92 -1 174 2 182 8 21 72 19 124 -5z"/>
<path d="M6793 7275 c-64 -39 -115 -118 -149 -234 -4 -11 -7 -12 -16 -3 -27
27 -106 4 -152 -44 -53 -55 -85 -169 -102 -357 l-6 -77 -49 -35 c-84 -62 -107
-116 -189 -440 -64 -255 -84 -356 -102 -504 -12 -100 -12 -101 -47 -124 -247
-161 -433 -311 -571 -457 -120 -128 -157 -177 -199 -264 -26 -54 -72 -217 -84
-296 -4 -32 -8 -21 -36 98 -25 111 -75 224 -128 290 -201 251 -371 404 -669
604 l-74 49 -1 47 c0 76 -8 128 -45 297 -61 284 -122 506 -159 582 -34 69
-104 145 -128 140 -6 -1 -12 18 -14 43 -13 163 -47 317 -84 375 -41 64 -134
106 -166 74 -16 -16 -43 -3 -43 20 0 30 -29 100 -63 149 -47 70 -152 103 -206
66 -46 -32 -50 -65 -30 -219 23 -178 61 -574 65 -685 2 -47 4 -85 5 -85 0 0 2
-11 5 -24 l4 -24 -18 24 c-21 28 -74 143 -133 290 -59 149 -127 277 -173 327
-51 56 -124 93 -197 99 -48 5 -59 3 -78 -16 -30 -30 -27 -54 19 -156 24 -53
110 -276 123 -320 9 -27 41 -144 72 -260 53 -200 69 -245 137 -395 47 -101 66
-153 123 -327 29 -89 68 -189 85 -222 34 -63 163 -197 370 -382 389 -350 481
-469 510 -663 13 -89 -23 -267 -100 -490 -22 -66 -28 -126 -8 -92 50 87 148
433 148 525 0 111 -64 264 -160 385 -55 70 -208 217 -504 486 -81 74 -169 164
-196 199 -47 63 -71 122 -141 351 -12 41 -40 114 -61 163 -21 48 -55 126 -77
175 -21 48 -59 170 -85 272 -65 256 -123 429 -210 623 -32 72 -33 95 -2 106
77 30 221 -74 283 -206 16 -32 31 -60 34 -63 3 -3 8 -16 12 -29 6 -23 4 -23
-44 -19 -63 6 -60 -10 7 -32 58 -19 78 -45 124 -158 17 -42 44 -103 61 -134
16 -32 26 -59 21 -59 -4 -1 -30 -2 -59 -3 -61 -1 -98 -29 -113 -87 -13 -47
-10 -54 67 -174 167 -259 217 -333 265 -388 18 -21 42 -53 53 -71 34 -56 98
-151 105 -156 3 -3 25 -40 49 -82 46 -85 68 -109 57 -62 -9 36 -110 218 -136
247 -11 11 -22 29 -26 39 -3 10 -9 18 -13 18 -4 0 -13 11 -19 24 -6 13 -27 46
-47 73 -40 54 -38 51 -83 113 -42 57 -202 300 -202 307 0 3 -8 17 -19 31 -35
51 -36 70 -2 103 17 16 39 29 48 30 10 0 29 2 43 3 50 6 140 -48 140 -83 0
-14 2 -14 10 -1 8 12 14 10 42 -15 58 -53 98 -97 196 -220 162 -201 201 -234
467 -390 388 -227 701 -501 783 -685 44 -100 70 -202 91 -360 7 -48 -3 -173
-15 -204 -5 -13 -4 -17 4 -12 6 4 16 24 21 44 16 60 2 309 -19 337 -4 6 -11
35 -15 65 -4 30 -11 62 -16 71 -13 26 -19 70 -8 63 6 -3 8 -8 5 -12 -3 -3 2
-11 12 -19 9 -8 11 -12 5 -8 -20 10 -15 -8 11 -43 13 -18 29 -54 36 -80 7 -26
16 -51 20 -57 12 -16 21 -64 35 -172 10 -84 10 -112 -1 -160 -7 -31 -16 -80
-20 -108 -3 -27 -10 -53 -16 -56 -5 -3 -8 -10 -7 -15 2 -5 -1 -29 -5 -54 -8
-41 -14 -58 -37 -100 -19 -34 -39 -83 -35 -87 2 -2 13 8 25 23 16 20 18 29 10
35 -8 5 -4 8 11 11 27 4 31 10 65 103 32 86 47 116 53 110 3 -2 0 -10 -5 -17
-9 -12 -44 -141 -48 -178 -18 -159 -18 -161 -29 -240 -10 -73 27 65 53 200 13
63 26 121 31 129 4 8 12 -22 19 -75 6 -49 15 -118 20 -154 5 -36 16 -81 25
-100 16 -34 16 -34 10 -5 -28 141 -30 172 -16 193 14 21 8 47 -9 37 -5 -4 -5
3 0 18 6 15 6 28 0 34 -15 15 -27 226 -16 295 6 43 6 63 -3 68 -8 5 -8 18 0
51 6 24 20 85 30 135 11 50 36 125 55 167 19 41 35 80 35 86 0 6 4 11 8 11 5
0 14 10 20 23 22 45 11 -5 -18 -84 -16 -45 -27 -86 -24 -91 3 -4 1 -23 -5 -41
-19 -63 -23 -171 -6 -208 l15 -34 -4 35 c-8 54 13 237 35 320 12 41 36 107 55
146 78 163 352 397 754 643 249 153 329 219 460 379 93 114 197 220 256 261
22 14 45 32 53 39 50 48 161 38 191 -17 27 -51 11 -97 -79 -229 -31 -45 -65
-98 -76 -117 -12 -19 -52 -71 -90 -115 -39 -45 -75 -91 -82 -103 -7 -12 -12
-16 -13 -9 0 20 -20 3 -20 -17 0 -9 -13 -30 -30 -46 -16 -16 -30 -33 -30 -38
0 -5 -18 -36 -40 -69 -23 -32 -38 -63 -35 -68 4 -6 2 -10 -3 -10 -22 0 -75
-159 -61 -181 7 -11 9 -11 9 3 0 14 38 93 112 231 12 21 45 64 75 95 29 31 65
73 80 94 14 21 30 38 34 38 5 0 9 5 9 11 0 7 15 30 33 53 39 48 187 262 187
270 0 3 14 27 30 53 45 71 54 113 34 162 -19 49 -48 69 -111 77 -26 3 -49 7
-51 8 -2 2 10 30 27 62 49 98 101 216 101 230 0 18 53 50 96 59 56 10 41 29
-16 21 -27 -4 -50 -4 -50 0 0 3 23 50 51 105 68 132 166 219 247 219 29 0 62
-26 62 -49 0 -7 -24 -67 -54 -134 -67 -151 -122 -314 -176 -522 -44 -171 -75
-261 -163 -475 -30 -74 -72 -189 -92 -255 -60 -199 -79 -231 -218 -369 -67
-67 -194 -187 -281 -266 -277 -253 -373 -366 -434 -513 -59 -140 -50 -254 39
-527 45 -135 64 -180 79 -180 12 0 13 6 1 28 -14 25 -76 239 -107 367 -40 167
-23 258 78 412 62 95 121 157 358 377 292 271 370 347 409 406 48 72 62 105
120 290 26 85 58 175 69 200 100 221 123 285 182 515 51 199 102 347 174 508
31 68 56 133 56 145 0 11 -12 34 -26 51 -21 26 -33 31 -67 31 -50 0 -113 -28
-170 -72 -71 -57 -123 -154 -228 -423 -58 -149 -106 -245 -124 -245 -8 0 -15
5 -15 11 0 5 4 8 9 5 11 -7 21 92 21 206 0 49 4 130 10 181 5 51 11 115 14
142 2 28 14 130 26 228 27 211 22 249 -35 273 -48 20 -74 17 -122 -11z m-3347
-53 c42 -31 97 -122 108 -182 6 -31 29 -228 57 -485 5 -49 14 -112 20 -140 6
-27 12 -77 15 -110 3 -51 15 -129 48 -315 12 -67 15 -113 7 -104 -4 5 -46 54
-91 109 -46 55 -93 107 -104 114 -12 8 -46 40 -76 70 l-56 56 0 80 c-1 167
-32 561 -60 749 -18 130 -18 133 11 161 32 33 73 32 121 -3z m3469 14 c22 -16
22 -43 -1 -231 -23 -194 -33 -319 -39 -495 -8 -219 -18 -286 -46 -316 -12 -13
-24 -22 -26 -20 -6 6 -143 -135 -199 -205 -82 -103 -86 -101 -58 26 8 39 23
121 34 183 11 62 21 116 24 120 2 4 16 106 31 226 16 138 31 226 40 239 8 12
15 18 15 14 0 -5 6 -5 13 0 6 4 17 8 22 9 6 1 35 14 65 28 50 24 52 26 24 26
-17 0 -53 -11 -80 -25 -26 -13 -52 -21 -55 -17 -13 13 7 265 25 306 48 114
149 177 211 132z m-3190 -257 c20 -18 42 -44 50 -58 19 -38 65 -269 65 -332 0
-77 64 -499 139 -914 5 -27 7 -52 5 -54 -8 -8 -90 57 -171 135 -79 77 -83 82
-83 125 0 24 -7 87 -15 139 -9 52 -18 117 -20 145 -2 27 -13 113 -25 190 -52
348 -63 436 -64 526 -1 68 3 101 13 112 22 27 66 21 106 -14z m2896 12 c31
-25 30 -33 -22 -516 -6 -55 -15 -116 -20 -135 -6 -19 -14 -62 -20 -95 -14 -91
-27 -167 -34 -195 -3 -14 -10 -61 -16 -105 -14 -101 -20 -115 -66 -166 -37
-41 -193 -163 -199 -156 -2 2 3 26 11 53 20 68 52 229 69 349 9 55 24 159 35
230 12 72 32 227 46 345 13 118 29 231 35 250 16 58 67 130 103 145 42 19 51
18 78 -4z m-2664 -550 c51 -67 123 -325 209 -756 13 -67 19 -175 9 -175 -9 0
-160 94 -168 104 -4 6 -6 26 -4 44 1 17 -1 32 -5 32 -4 0 -7 10 -7 23 1 16 2
18 6 5 2 -10 8 -18 13 -18 8 0 -2 49 -20 100 -5 14 -11 54 -14 90 -3 36 -10
79 -16 95 -6 17 -14 48 -16 70 -2 22 -11 81 -19 130 -18 105 -45 294 -45 314
0 21 39 -8 77 -58z m2398 17 c-2 -24 -7 -65 -10 -93 -3 -27 -14 -106 -25 -175
-11 -69 -25 -156 -31 -195 -6 -38 -16 -92 -22 -120 -6 -27 -12 -61 -13 -75 -1
-14 -2 -33 -3 -43 0 -11 -6 -15 -13 -11 -7 4 -8 3 -4 -5 4 -6 -1 -43 -10 -81
l-18 -69 -73 -42 c-41 -23 -75 -40 -77 -38 -6 8 25 216 44 304 24 105 82 337
111 445 27 98 73 194 106 219 37 30 44 26 38 -21z m-1245 -2213 c-4 -5 -11
-37 -14 -70 -7 -57 -74 -261 -83 -251 -2 2 9 51 25 108 16 56 32 117 35 133 3
17 11 44 18 60 7 17 12 41 11 55 l-1 25 8 -25 c4 -14 5 -29 1 -35z"/>
<path d="M3495 6787 c33 -25 61 -44 63 -42 6 6 -44 50 -73 65 -52 25 -51 23
10 -23z"/>
<path d="M3442 6365 c3 -3 17 -8 30 -10 12 -2 45 -8 73 -13 46 -9 65 -9 54 2
-11 11 -168 32 -157 21z"/>
<path d="M6800 6581 c0 -25 6 -27 13 -6 4 8 2 17 -3 20 -6 4 -10 -3 -10 -14z"/>
<path d="M6801 6454 c0 -11 3 -14 6 -6 3 7 2 16 -1 19 -3 4 -6 -2 -5 -13z"/>
<path d="M6672 6349 c-19 -4 -39 -12 -45 -19 -9 -9 -5 -10 18 -4 17 4 37 10
44 14 8 5 25 4 38 -1 17 -6 23 -5 23 5 0 15 -27 17 -78 5z"/>
<path d="M3666 6645 c4 -8 9 -13 14 -10 4 2 27 -10 51 -27 34 -25 39 -27 24
-9 -27 31 -97 67 -89 46z"/>
<path d="M3740 6175 c0 -2 9 -9 20 -15 16 -9 20 -8 20 5 0 8 -9 15 -20 15 -11
0 -20 -2 -20 -5z"/>
<path d="M6499 6610 c-32 -17 -69 -50 -56 -50 15 0 117 53 117 61 0 14 -21 10
-61 -11z"/>
<path d="M6476 6304 c-10 -25 -2 -26 24 -4 22 19 22 20 3 20 -12 0 -24 -7 -27
-16z"/>
<path d="M6446 6164 c-11 -7 -18 -16 -15 -18 2 -2 13 2 23 10 11 7 18 16 15
18 -2 2 -13 -2 -23 -10z"/>
<path d="M6439 5953 c-13 -16 -12 -17 4 -4 9 7 17 15 17 17 0 8 -8 3 -21 -13z"/>
<path d="M6414 5868 l-19 -23 23 19 c21 18 27 26 19 26 -2 0 -12 -10 -23 -22z"/>
<path d="M3970 6150 c0 -6 7 -10 15 -10 8 0 15 2 15 4 0 2 -7 6 -15 10 -8 3
-15 1 -15 -4z"/>
<path d="M5050 7152 c-39 -14 -51 -59 -22 -85 26 -24 49 -21 68 8 26 39 -5 91
-46 77z"/>
<path d="M5983 7152 c-34 -23 -32 -82 3 -96 22 -8 64 19 64 42 0 34 -44 69
-67 54z"/>
<path d="M3411 6032 c-1 -18 -5 -31 -10 -28 -4 3 -6 -6 -3 -19 2 -14 8 -25 12
-25 12 0 18 62 9 85 -6 16 -8 14 -8 -13z"/>
<path d="M6809 6005 c-5 -30 1 -66 14 -86 17 -24 17 -24 11 16 -3 22 -7 48 -7
58 -1 15 -16 25 -18 12z"/>
<path d="M1278 5869 c-78 -31 -95 -47 -59 -56 38 -10 42 -47 39 -347 l-3 -288
-27 -23 c-15 -13 -24 -26 -21 -29 10 -10 243 -7 243 3 0 6 -13 18 -30 28 l-30
17 -1 341 c-1 187 0 350 1 363 2 29 -16 28 -112 -9z"/>
<path d="M9970 5875 c-30 -13 -62 -24 -70 -25 -9 0 -21 -5 -28 -12 -9 -9 -5
-16 18 -30 28 -16 30 -22 30 -77 0 -32 -3 -72 -6 -89 -6 -30 -7 -31 -33 -18
-106 54 -263 2 -319 -107 -34 -67 -42 -178 -17 -245 25 -66 68 -117 121 -143
59 -28 160 -23 205 10 30 23 49 21 49 -5 0 -21 152 -20 174 2 21 21 20 34 -3
34 -11 0 -23 5 -27 11 -3 6 -6 170 -5 365 1 403 10 371 -89 329z m-97 -310
l37 -26 0 -158 0 -157 -41 -23 c-44 -25 -72 -23 -126 10 -76 47 -105 215 -53
308 41 72 116 91 183 46z"/>
<path d="M983 5850 c-28 -17 -33 -25 -33 -58 0 -40 13 -58 57 -81 35 -18 80 9
89 53 9 48 -2 72 -40 90 -41 20 -35 20 -73 -4z"/>
<path d="M668 5853 c-71 -2 -128 -7 -128 -10 0 -4 15 -19 33 -34 l32 -27 2
-130 3 -130 -30 -4 c-26 -4 -177 -4 -267 1 l-33 1 0 130 c0 140 0 141 60 182
24 16 19 17 -132 17 -88 1 -158 -3 -158 -8 0 -5 16 -18 35 -29 19 -12 37 -32
40 -45 4 -13 5 -148 3 -301 -3 -305 1 -283 -64 -322 -11 -7 -16 -15 -13 -18 3
-4 75 -5 160 -4 l154 3 -42 28 -43 27 0 135 0 135 163 -2 162 -3 3 -90 c5
-133 -3 -171 -39 -192 -59 -35 -39 -43 105 -43 135 0 171 9 123 31 -44 20 -47
43 -47 341 l0 281 35 33 c35 33 45 56 23 52 -7 -1 -70 -4 -140 -5z"/>
<path d="M3523 5843 c-3 -10 -18 -28 -32 -40 -14 -12 -21 -22 -15 -23 16 0 64
50 64 66 0 20 -9 17 -17 -3z"/>
<path d="M7606 5852 c-17 -8 -16 -11 15 -32 19 -13 37 -29 41 -35 9 -12 10
-560 2 -593 -4 -12 -19 -29 -35 -38 -16 -8 -29 -19 -29 -24 0 -13 250 -13 270
0 9 6 10 10 3 10 -7 0 -24 12 -38 26 -25 25 -26 28 -23 152 l3 127 90 3 90 3
30 -48 30 -48 3 68 c2 37 2 97 0 135 l-3 67 -33 -52 c-30 -47 -36 -52 -80 -57
-39 -4 -83 -3 -124 3 -5 0 -8 64 -8 140 l0 140 46 7 c109 16 166 -9 237 -104
l42 -57 3 94 c1 52 1 99 -1 105 -5 13 -501 20 -531 8z"/>
<path d="M9295 5840 c-11 -12 -19 -36 -19 -55 0 -45 28 -75 71 -75 41 0 83 38
83 75 0 62 -94 100 -135 55z"/>
<path d="M6731 5829 c-1 -9 9 -24 22 -35 22 -19 22 -19 6 1 -9 11 -19 27 -22
35 -5 13 -6 13 -6 -1z"/>
<path d="M3565 5770 c-3 -5 -2 -10 4 -10 5 0 13 5 16 10 3 6 2 10 -4 10 -5 0
-13 -4 -16 -10z"/>
<path d="M3606 5732 c1 -15 3 -31 3 -36 1 -15 15 3 18 23 1 11 -3 24 -10 29
-10 8 -12 5 -11 -16z"/>
<path d="M6715 5752 c6 -4 21 -20 33 -36 12 -16 22 -22 22 -15 -1 19 -35 59
-52 59 -8 0 -9 -3 -3 -8z"/>
<path d="M6798 5753 c7 -3 16 -2 19 1 4 3 -2 6 -13 5 -11 0 -14 -3 -6 -6z"/>
<path d="M6720 5711 c0 -6 4 -13 10 -16 6 -3 7 1 4 9 -7 18 -14 21 -14 7z"/>
<path d="M3580 5685 c-7 -9 -11 -18 -8 -20 3 -3 11 1 18 10 7 9 11 18 8 20 -3
3 -11 -1 -18 -10z"/>
<path d="M3609 5652 c-24 -21 -52 -41 -61 -45 -10 -3 -18 -11 -18 -16 0 -5 13
-5 30 2 17 6 30 15 30 19 0 4 17 23 38 42 50 48 36 46 -19 -2z"/>
<path d="M6620 5684 c0 -9 41 -42 74 -60 22 -12 27 -13 24 -2 -3 7 -14 18 -26
24 -12 6 -30 18 -40 27 -19 17 -32 22 -32 11z"/>
<path d="M6616 5648 c10 -14 21 -24 23 -22 3 3 -6 15 -18 27 l-24 22 19 -27z"/>
<path d="M996 5629 c-50 -17 -92 -31 -93 -33 -2 -2 10 -17 27 -34 l30 -30 0
-161 c0 -88 -4 -171 -10 -185 -5 -15 -21 -31 -35 -38 -42 -19 -10 -28 102 -28
130 0 142 4 103 37 l-30 24 -2 239 -3 238 -89 -29z"/>
<path d="M1659 5640 c-107 -18 -168 -95 -124 -157 38 -55 105 -31 105 39 0 52
30 82 74 74 53 -11 71 -38 71 -108 l0 -62 -65 -24 c-170 -63 -205 -89 -215
-156 -9 -58 14 -102 63 -123 47 -19 142 -11 189 17 l33 19 38 -25 c33 -23 44
-25 97 -21 45 4 64 11 77 27 23 28 13 44 -21 37 -53 -11 -56 -2 -61 185 -3
103 -10 181 -17 193 -39 69 -137 102 -244 85z m131 -342 c0 -83 -3 -89 -47
-112 -51 -26 -103 4 -103 60 0 54 73 122 133 124 15 0 17 -10 17 -72z"/>
<path d="M2120 5623 c-36 -14 -67 -28 -70 -30 -3 -3 7 -14 23 -25 l27 -20 0
-188 0 -188 -27 -17 c-23 -15 -24 -19 -10 -27 25 -14 229 -6 235 10 2 6 -3 12
-11 12 -7 0 -21 8 -30 18 -14 16 -17 43 -17 173 l0 155 28 27 c31 30 42 33 42
14 0 -8 11 -24 24 -36 29 -27 74 -22 94 10 19 30 5 106 -21 120 -30 17 -93 4
-132 -25 -18 -14 -36 -26 -39 -26 -2 0 -6 15 -8 33 -4 42 -24 44 -108 10z"/>
<path d="M8358 5636 c-114 -30 -165 -118 -97 -168 49 -37 99 2 99 77 0 26 15
41 51 50 40 10 80 -29 88 -86 11 -79 9 -82 -89 -118 -50 -18 -109 -46 -133
-62 -80 -53 -82 -151 -5 -199 47 -30 142 -23 199 14 33 23 40 24 45 11 8 -21
56 -45 89 -45 14 0 42 7 62 15 60 25 67 55 14 55 -16 0 -33 6 -39 13 -6 7 -12
85 -14 182 -2 141 -6 174 -20 196 -42 61 -153 90 -250 65z m152 -322 c0 -70
-10 -100 -40 -117 -38 -23 -76 -21 -101 4 -17 17 -20 28 -14 57 9 47 26 65 88
97 59 29 67 24 67 -41z"/>
<path d="M8816 5618 c-70 -28 -76 -33 -60 -45 44 -30 44 -28 44 -213 0 -167
-1 -181 -20 -200 -11 -11 -25 -20 -32 -20 -8 0 -9 -3 -2 -10 15 -15 236 -9
241 6 2 6 -5 14 -16 17 -33 8 -41 49 -41 199 l0 140 36 36 c35 35 37 35 50 17
8 -10 14 -24 14 -30 0 -6 11 -17 24 -24 19 -11 29 -11 52 0 62 30 49 126 -20
149 -30 10 -42 8 -81 -9 -28 -13 -49 -30 -57 -48 l-13 -27 -5 44 c-3 29 -10
46 -20 47 -8 1 -50 -12 -94 -29z"/>
<path d="M9325 5631 c-28 -10 -61 -24 -75 -31 l-24 -13 27 -14 27 -14 0 -194
0 -195 -26 -16 c-17 -12 -21 -19 -13 -24 19 -12 239 -12 239 0 0 5 -4 10 -8
10 -5 0 -18 9 -30 20 -21 20 -22 27 -22 255 l0 235 -22 0 c-13 -1 -46 -9 -73
-19z"/>
<path d="M2454 5628 c-4 -7 -1 -14 7 -17 32 -10 68 -65 114 -173 26 -62 68
-155 92 -207 23 -51 43 -103 43 -115 0 -38 -48 -125 -75 -138 -21 -9 -32 -8
-62 6 -33 16 -37 16 -54 0 -22 -20 -26 -76 -6 -92 26 -22 82 -24 117 -5 59 33
87 83 190 343 125 312 148 360 177 371 13 5 23 15 23 24 0 12 -16 15 -90 15
-49 0 -90 -3 -90 -6 0 -3 11 -15 25 -26 14 -11 25 -27 25 -37 0 -18 -69 -202
-94 -249 l-14 -26 -16 37 c-55 133 -86 217 -86 236 0 11 9 26 20 33 11 7 20
18 20 25 0 18 -255 19 -266 1z"/>
<path d="M6589 5560 c20 -22 40 -40 45 -40 4 0 -9 18 -30 40 -21 22 -41 40
-45 40 -4 0 10 -18 30 -40z"/>
<path d="M3665 5570 c-3 -5 -1 -10 4 -10 6 0 11 5 11 10 0 6 -2 10 -4 10 -3 0
-8 -4 -11 -10z"/>
<path d="M3702 5535 c-9 -15 -14 -17 -20 -7 -6 9 -13 7 -28 -9 -11 -14 -13
-19 -4 -13 8 4 22 8 30 6 22 -3 43 13 38 29 -3 10 -8 8 -16 -6z"/>
<path d="M6510 5495 c0 -4 9 -18 20 -32 11 -14 20 -22 20 -18 0 4 -9 18 -20
32 -11 14 -20 22 -20 18z"/>
<path d="M3500 5470 c0 -5 5 -10 11 -10 5 0 7 5 4 10 -3 6 -8 10 -11 10 -2 0
-4 -4 -4 -10z"/>
<path d="M3729 5443 c-13 -14 -17 -23 -9 -19 8 3 23 9 33 12 18 7 22 20 8 28
-4 3 -19 -6 -32 -21z"/>
<path d="M3455 5420 c3 -5 8 -10 11 -10 2 0 4 5 4 10 0 6 -5 10 -11 10 -5 0
-7 -4 -4 -10z"/>
<path d="M3837 5390 c-38 -42 -34 -51 4 -12 18 18 30 35 27 37 -3 3 -17 -8
-31 -25z"/>
<path d="M6434 5409 c3 -8 9 -21 12 -31 3 -9 13 -19 22 -22 10 -3 23 -9 30
-12 27 -13 10 14 -29 46 -23 18 -39 27 -35 19z"/>
<path d="M6721 5391 c-28 -27 -31 -41 -8 -41 6 0 7 3 4 7 -4 4 5 19 20 35 35
37 22 36 -16 -1z"/>
<path d="M6434 5341 c21 -23 26 -26 26 -11 0 5 -10 15 -22 21 -23 12 -23 12
-4 -10z"/>
<path d="M6657 5344 c6 -16 19 -18 27 -5 3 5 -3 11 -13 14 -14 3 -18 1 -14 -9z"/>
<path d="M3890 5329 c0 -5 5 -7 10 -4 6 3 10 8 10 11 0 2 -4 4 -10 4 -5 0 -10
-5 -10 -11z"/>
<path d="M3582 5299 c2 -6 14 -16 26 -20 29 -11 28 -5 -4 16 -17 11 -25 12
-22 4z"/>
<path d="M3916 5285 c-9 -14 -21 -25 -27 -25 -6 0 -17 -7 -25 -15 -12 -11 -12
-15 -2 -15 23 1 103 80 80 80 -5 0 -17 -11 -26 -25z"/>
<path d="M6636 5275 c-11 -8 -17 -17 -14 -20 2 -3 13 4 23 15 21 23 18 25 -9
5z"/>
<path d="M6331 5238 c11 -13 25 -32 29 -43 9 -20 9 -20 9 1 1 11 -9 30 -22 42
-31 29 -44 28 -16 0z"/>
<path d="M3923 5221 c-17 -15 -39 -31 -48 -35 -10 -3 -15 -9 -12 -13 4 -3 17
1 29 9 36 25 72 58 67 63 -3 2 -19 -8 -36 -24z"/>
<path d="M6390 5246 c0 -2 7 -7 16 -10 8 -3 12 -2 9 4 -6 10 -25 14 -25 6z"/>
<path d="M6250 5226 c0 -8 68 -77 95 -96 11 -7 8 -2 -7 13 -15 15 -31 32 -35
39 -11 18 -53 53 -53 44z"/>
<path d="M3657 5199 c7 -27 22 -34 20 -9 -1 10 -7 22 -13 24 -7 3 -10 -3 -7
-15z"/>
<path d="M3964 5186 c-10 -8 -17 -17 -14 -19 3 -3 16 3 29 14 27 22 15 26 -15
5z"/>
<path d="M3906 5145 c-16 -14 -24 -25 -19 -25 15 0 59 37 53 44 -3 3 -19 -6
-34 -19z"/>
<path d="M3992 5116 c-23 -25 -42 -51 -42 -58 0 -7 20 9 45 36 39 42 54 66 42
66 -2 0 -22 -20 -45 -44z"/>
<path d="M6265 5120 c16 -16 31 -28 33 -25 7 7 -39 55 -52 55 -5 0 3 -13 19
-30z"/>
<path d="M4032 5084 c-13 -9 -35 -27 -50 -41 -15 -14 -40 -34 -57 -44 -19 -12
-24 -19 -13 -19 17 0 99 61 132 99 23 25 19 27 -12 5z"/>
<path d="M6224 5074 c17 -28 72 -71 81 -62 1 1 -20 23 -48 48 -47 42 -50 43
-33 14z"/>
<path d="M4070 5035 c-13 -14 -31 -27 -42 -31 -10 -3 -18 -9 -18 -14 0 -11 63
25 81 46 21 26 3 25 -21 -1z"/>
<path d="M6114 5029 c28 -44 106 -103 106 -79 0 5 -4 10 -10 10 -5 0 -17 8
-27 18 -10 9 -33 31 -52 47 -32 28 -33 29 -17 4z"/>
<path d="M4127 4999 c-3 -13 -1 -19 6 -16 15 5 22 37 9 37 -5 0 -12 -9 -15
-21z"/>
<path d="M6035 4994 c34 -53 62 -70 62 -39 0 8 -6 15 -13 15 -6 0 -14 6 -17
14 -3 8 -16 20 -29 27 l-22 12 19 -29z"/>
<path d="M6010 4931 c0 -5 7 -12 16 -15 14 -5 15 -4 4 9 -14 17 -20 19 -20 6z"/>
<path d="M6120 4932 c0 -7 -6 -10 -12 -7 -7 4 6 -12 29 -34 24 -23 52 -41 65
-41 l22 0 -24 17 c-14 9 -28 22 -32 27 -5 7 -8 7 -8 1 0 -5 -9 4 -20 20 -11
17 -20 24 -20 17z"/>
<path d="M4135 4899 c-68 -66 -76 -73 -91 -75 -23 -4 -30 -14 -10 -14 18 0
109 64 140 99 30 33 -3 24 -39 -10z"/>
<path d="M3958 4904 c-38 -20 -36 -28 2 -9 17 9 30 18 30 20 0 7 -1 6 -32 -11z"/>
<path d="M5959 4873 c24 -34 96 -102 90 -86 -5 13 -97 113 -105 113 -3 0 4
-12 15 -27z"/>
<path d="M4214 4877 c-5 -7 -21 -20 -35 -30 -13 -10 -5 -8 18 5 24 13 43 26
43 31 0 11 -14 8 -26 -6z"/>
<path d="M6090 4855 c13 -14 26 -25 28 -25 3 0 -5 11 -18 25 -13 14 -26 25
-28 25 -3 0 5 -11 18 -25z"/>
<path d="M6050 4854 c26 -32 74 -74 88 -74 20 0 15 5 -45 50 -32 24 -51 35
-43 24z"/>
<path d="M5890 4839 c0 -21 103 -130 141 -150 56 -28 57 -24 3 24 -27 23 -70
63 -96 89 -27 27 -48 43 -48 37z"/>
<path d="M4295 4812 c-17 -13 -89 -92 -84 -92 6 0 70 59 88 83 14 18 13 22 -4
9z"/>
<path d="M4360 4755 c-7 -8 -20 -15 -29 -15 -9 0 -24 -8 -33 -17 -27 -29 -47
-43 -81 -59 -19 -9 -23 -13 -10 -11 29 6 160 88 167 105 7 16 1 15 -14 -3z"/>
<path d="M6092 4754 c10 -10 20 -16 22 -13 3 3 -5 11 -17 18 -21 13 -21 12 -5
-5z"/>
<path d="M4055 4740 c-3 -6 1 -7 9 -4 18 7 21 14 7 14 -6 0 -13 -4 -16 -10z"/>
<path d="M5770 4746 c0 -4 21 -30 48 -58 26 -27 46 -55 44 -61 -2 -8 1 -8 9 1
11 10 3 23 -44 70 -31 31 -57 53 -57 48z"/>
<path d="M5908 4713 c7 -3 16 -2 19 1 4 3 -2 6 -13 5 -11 0 -14 -3 -6 -6z"/>
<path d="M4349 4673 l-24 -26 27 19 c15 10 28 22 28 27 0 12 -5 8 -31 -20z"/>
<path d="M5910 4684 c0 -13 37 -48 68 -63 15 -8 22 -8 22 -1 0 6 -8 13 -17 17
-10 3 -30 17 -45 31 -16 14 -28 21 -28 16z"/>
<path d="M4341 4620 c-28 -23 -61 -45 -74 -50 -18 -7 -18 -9 -4 -9 17 -1 119
68 132 89 11 18 -2 11 -54 -30z"/>
<path d="M5750 4640 c6 -11 13 -20 16 -20 2 0 0 9 -6 20 -6 11 -13 20 -16 20
-2 0 0 -9 6 -20z"/>
<path d="M5780 4618 c0 -7 30 -42 67 -77 56 -53 69 -61 72 -46 2 11 -3 21 -10
24 -8 2 -38 28 -67 58 -55 56 -62 60 -62 41z"/>
<path d="M4455 4574 c-27 -25 -63 -52 -80 -59 -16 -8 -23 -14 -14 -15 21 0 98
51 133 89 44 46 18 37 -39 -15z"/>
<path d="M5905 4610 c6 -10 4 -12 -11 -6 -15 6 -17 5 -6 -5 9 -9 15 -10 23 -2
8 8 7 13 -2 18 -8 6 -10 4 -4 -5z"/>
<path d="M5920 4582 c0 -12 19 -26 26 -19 2 2 -2 10 -11 17 -9 8 -15 8 -15 2z"/>
<path d="M5718 4564 c20 -39 108 -124 128 -123 17 0 16 2 -6 16 -14 9 -49 42
-79 72 -29 31 -49 47 -43 35z"/>
<path d="M5646 4557 c3 -10 9 -15 12 -12 3 3 0 11 -7 18 -10 9 -11 8 -5 -6z"/>
<path d="M4544 4538 c-16 -12 -31 -25 -34 -29 -3 -3 -13 -10 -24 -16 -10 -6
-14 -13 -9 -16 5 -3 21 5 36 19 14 13 31 24 36 24 6 0 15 9 21 20 14 25 9 25
-26 -2z"/>
<path d="M5683 4509 c15 -11 27 -26 27 -32 1 -16 36 -57 49 -57 5 0 14 -6 18
-14 4 -7 19 -19 33 -26 14 -7 -12 24 -58 69 -46 44 -86 81 -90 81 -4 0 5 -10
21 -21z"/>
<path d="M5500 4481 c0 -5 5 -13 10 -16 6 -3 10 -2 10 4 0 5 -4 13 -10 16 -5
3 -10 2 -10 -4z"/>
<path d="M5610 4482 c0 -19 73 -99 112 -122 12 -7 16 -6 14 6 -1 9 -10 20 -19
25 -9 5 -37 31 -62 56 -25 26 -45 42 -45 35z"/>
<path d="M5565 4425 c1 -18 14 -38 41 -61 52 -44 62 -43 25 4 -17 20 -39 48
-49 60 l-18 24 1 -27z"/>
<path d="M4624 4393 c-16 -21 -36 -45 -46 -55 -10 -10 -14 -18 -10 -18 11 0
67 60 81 88 17 33 7 27 -25 -15z"/>
<path d="M4652 4353 c-72 -76 -89 -104 -37 -61 51 43 129 138 113 138 -3 0
-37 -35 -76 -77z"/>
<path d="M5460 4415 c0 -10 63 -89 82 -103 10 -7 24 -27 33 -45 8 -18 32 -43
53 -56 l37 -24 -40 46 c-22 26 -53 63 -70 83 -41 50 -95 106 -95 99z"/>
<path d="M4750 4355 c-7 -14 -19 -25 -27 -25 -7 0 -13 -4 -13 -10 0 -13 12
-12 30 3 26 21 41 45 32 51 -5 3 -15 -6 -22 -19z"/>
<path d="M5220 4360 c0 -19 3 -21 12 -12 9 9 9 15 0 24 -9 9 -12 7 -12 -12z"/>
<path d="M5410 4351 c0 -5 5 -13 10 -16 6 -3 10 -2 10 4 0 5 -4 13 -10 16 -5
3 -10 2 -10 -4z"/>
<path d="M5220 4320 c0 -6 4 -9 9 -6 5 4 12 1 14 -4 3 -6 4 -5 3 2 -3 15 -26
23 -26 8z"/>
<path d="M5448 4324 c-9 -8 51 -85 96 -125 55 -47 53 -29 -1 24 -52 49 -64 63
-79 90 -6 10 -13 15 -16 11z"/>
<path d="M5639 4302 c12 -23 50 -57 56 -50 3 3 -6 13 -20 22 -14 9 -25 23 -25
31 0 8 -5 15 -10 15 -7 0 -7 -6 -1 -18z"/>
<path d="M5666 4307 c6 -16 94 -58 94 -45 0 5 -15 15 -34 23 -19 8 -37 19 -41
25 -9 15 -25 12 -19 -3z"/>
<path d="M4674 4289 c-10 -12 -37 -35 -58 -50 -48 -36 -25 -39 26 -4 35 24 65
62 55 71 -2 2 -12 -6 -23 -17z"/>
<path d="M4746 4250 c-21 -28 -52 -61 -68 -75 -16 -14 -26 -25 -21 -25 24 2
159 150 136 150 -5 0 -26 -23 -47 -50z"/>
<path d="M5205 4290 c-14 -23 30 -122 60 -134 10 -3 7 8 -10 34 -14 23 -22 47
-19 57 5 15 4 16 -5 3 -9 -13 -11 -12 -12 5 -1 11 -2 26 -2 33 1 14 -4 16 -12
2z"/>
<path d="M5225 4280 c-3 -5 -1 -10 4 -10 6 0 11 5 11 10 0 6 -2 10 -4 10 -3 0
-8 -4 -11 -10z"/>
<path d="M5410 4272 c6 -12 8 -26 5 -31 -6 -11 62 -100 101 -130 50 -39 37
-13 -25 51 -34 34 -60 67 -57 73 2 6 -5 22 -16 36 -18 23 -19 23 -8 1z"/>
<path d="M4805 4242 c-47 -60 -124 -133 -158 -147 -18 -8 -28 -14 -23 -15 5 0
-9 -13 -32 -29 -39 -29 -71 -64 -41 -46 26 16 114 79 141 101 36 29 152 164
146 169 -2 3 -17 -12 -33 -33z"/>
<path d="M5028 4260 c-4 -14 -8 -33 -8 -44 0 -16 -13 -51 -67 -175 -11 -26
-11 -36 -2 -42 12 -7 5 -22 -47 -105 -18 -29 -18 -29 2 -12 26 23 67 105 59
118 -8 13 9 69 47 147 20 43 28 74 26 100 -3 34 -4 35 -10 13z"/>
<path d="M4935 4150 c-4 -12 -5 -24 -2 -27 3 -2 8 5 12 17 4 12 5 24 2 27 -3
2 -8 -5 -12 -17z"/>
<path d="M5213 4104 c4 -52 61 -174 86 -182 13 -4 -34 96 -52 109 -4 3 -11 29
-16 58 -11 68 -22 78 -18 15z"/>
<path d="M5422 4136 c7 -7 19 -23 27 -34 8 -12 18 -19 22 -17 4 3 14 -7 24
-21 26 -40 53 -64 73 -64 17 0 3 15 -110 118 -36 31 -62 45 -36 18z"/>
<path d="M5178 4107 c-2 -20 -1 -37 3 -37 4 0 7 -6 6 -12 -1 -32 4 -49 12 -44
5 4 12 0 15 -6 3 -7 3 -2 0 12 -4 14 -10 26 -14 28 -4 1 -5 13 -3 25 2 12 0
33 -5 47 -9 24 -9 23 -14 -13z"/>
<path d="M4540 4115 c-8 -9 -8 -15 -2 -15 12 0 26 19 19 26 -2 2 -10 -2 -17
-11z"/>
<path d="M4803 4115 c-8 -14 -152 -130 -215 -172 -18 -13 -27 -23 -19 -23 7 0
38 18 70 40 31 22 60 40 63 40 11 0 96 85 107 108 13 24 7 31 -6 7z"/>
<path d="M5251 4120 c-1 -23 34 -93 54 -110 10 -8 16 -10 13 -5 -2 6 -10 25
-17 43 -7 17 -17 32 -21 32 -5 0 -13 12 -18 28 -6 15 -11 20 -11 12z"/>
<path d="M5587 4087 c-3 -8 -1 -20 4 -28 6 -10 9 -7 9 14 0 29 -5 35 -13 14z"/>
<path d="M4996 4063 c-6 -14 -5 -15 5 -6 7 7 10 15 7 18 -3 3 -9 -2 -12 -12z"/>
<path d="M4886 4053 c-6 -14 -5 -15 5 -6 7 7 10 15 7 18 -3 3 -9 -2 -12 -12z"/>
<path d="M1047 4053 c-4 -3 -7 -299 -7 -657 l1 -651 137 -82 c75 -44 234 -138
352 -208 118 -70 258 -153 310 -185 91 -55 251 -150 640 -380 96 -57 285 -169
420 -250 242 -145 683 -407 1410 -841 206 -122 459 -274 563 -336 256 -154
240 -147 278 -128 16 9 141 83 277 164 136 81 405 241 597 356 193 114 415
247 495 295 127 77 306 183 955 568 88 52 214 127 280 167 66 40 188 112 270
160 137 80 355 210 950 563 116 68 216 132 223 140 9 12 12 158 12 651 0 350
-4 641 -8 647 -4 5 -40 10 -81 10 l-73 -1 1 -600 c0 -330 -3 -605 -7 -612 -4
-6 -86 -57 -182 -113 -96 -57 -224 -132 -285 -168 -205 -122 -680 -405 -750
-447 -38 -23 -135 -81 -215 -128 -146 -86 -792 -469 -1125 -667 -99 -59 -292
-174 -430 -256 -137 -81 -403 -240 -589 -352 l-340 -204 -40 23 c-23 13 -138
81 -256 152 -118 72 -303 181 -410 244 -107 63 -256 151 -330 195 -74 44 -211
126 -305 181 -93 55 -246 146 -340 202 -93 56 -271 162 -395 235 -124 73 -396
235 -605 360 -209 124 -524 311 -700 415 -176 103 -333 197 -350 207 -16 10
-66 40 -110 67 l-80 47 -3 612 -2 612 -73 0 c-41 0 -77 -3 -80 -7z"/>
<path d="M5436 4030 c20 -35 159 -180 173 -180 6 0 11 -4 11 -9 0 -11 59 -36
66 -28 3 3 -4 8 -16 12 -11 4 -60 45 -108 91 -117 114 -137 132 -126 114z"/>
<path d="M5379 3982 c5 -10 18 -25 28 -33 12 -10 11 -5 -6 19 -24 35 -38 43
-22 14z"/>
<path d="M4701 3936 c-23 -24 -60 -56 -82 -72 -52 -39 -50 -52 4 -15 48 34
133 118 126 126 -3 2 -24 -15 -48 -39z"/>
<path d="M5198 3965 c-3 -4 0 -19 8 -33 8 -15 25 -54 39 -86 14 -33 27 -57 30
-55 5 6 -24 91 -36 104 -5 5 -9 16 -9 25 0 20 -23 53 -32 45z"/>
<path d="M5606 3935 c4 -8 11 -15 16 -15 6 0 5 6 -2 15 -7 8 -14 15 -16 15 -2
0 -1 -7 2 -15z"/>
<path d="M5476 3898 c21 -26 39 -55 40 -64 1 -9 4 -17 6 -18 2 -1 26 -18 54
-38 55 -38 114 -72 114 -64 0 3 -28 26 -62 52 -35 25 -91 76 -126 113 -46 48
-53 53 -26 19z"/>
<path d="M5275 3876 c21 -32 27 -33 16 -4 -4 12 -14 24 -20 26 -8 3 -7 -5 4
-22z"/>
<path d="M4691 3854 c-19 -13 -37 -27 -40 -32 -3 -4 -26 -22 -51 -40 -25 -17
-58 -42 -75 -56 l-30 -26 33 13 c17 7 58 35 89 62 31 27 62 50 68 50 15 0 47
33 43 44 -2 5 -18 -2 -37 -15z"/>
<path d="M4519 3803 c-13 -17 -13 -17 6 -3 11 8 22 16 24 17 2 2 0 3 -6 3 -6
0 -17 -8 -24 -17z"/>
<path d="M4941 3793 c-10 -26 -10 -27 4 -9 8 11 15 23 15 28 0 15 -7 8 -19
-19z"/>
<path d="M5212 3740 c0 -14 2 -19 5 -12 2 6 2 18 0 25 -3 6 -5 1 -5 -13z"/>
<path d="M4577 3683 c-43 -30 -76 -57 -73 -60 4 -5 130 81 161 108 28 27 -20
0 -88 -48z"/>
<path d="M5570 3711 c0 -5 7 -12 16 -15 14 -5 15 -4 4 9 -14 17 -20 19 -20 6z"/>
<path d="M5622 3674 c16 -18 78 -59 78 -51 0 2 -21 19 -47 37 -27 19 -40 25
-31 14z"/>
<path d="M3809 3357 c-82 -21 -139 -103 -139 -201 0 -70 12 -102 58 -149 57
-58 151 -74 242 -39 l45 17 3 74 c4 82 -1 91 -55 91 -33 0 -51 -14 -33 -25 5
-3 10 -30 10 -59 0 -47 -3 -54 -25 -64 -36 -17 -53 -15 -91 9 -41 25 -52 43
-64 106 -12 66 5 139 40 175 22 22 38 28 71 28 36 0 47 -6 80 -39 20 -22 39
-37 42 -35 7 7 -4 87 -12 97 -12 13 -136 23 -172 14z"/>
<path d="M7845 3351 c-89 -44 -119 -94 -120 -196 0 -59 5 -77 27 -116 28 -46
88 -89 126 -89 11 0 27 -11 36 -25 41 -62 129 -69 182 -14 35 36 27 46 -17 20
-40 -25 -65 -26 -85 -7 -22 23 -17 32 37 71 31 22 57 50 66 73 21 48 20 149
-1 190 -48 92 -164 136 -251 93z m113 -36 c16 -5 32 -25 48 -58 41 -89 26
-178 -38 -230 -28 -22 -43 -28 -62 -23 -60 15 -104 106 -92 192 10 79 61 140
106 129 8 -2 26 -6 38 -10z"/>
<path d="M1334 3338 c21 -30 24 -363 4 -372 -7 -3 42 -4 109 -3 117 2 123 3
165 32 55 39 80 92 81 170 1 96 -47 163 -129 184 -24 6 -88 11 -144 11 l-101
0 15 -22z m191 -34 c117 -55 102 -264 -21 -304 -19 -7 -43 -9 -54 -5 -19 6
-20 15 -20 166 l0 159 31 0 c17 0 46 -7 64 -16z"/>
<path d="M1790 3351 c0 -6 5 -13 10 -16 15 -9 13 -338 -2 -353 -21 -21 -1 -27
81 -24 36 2 41 4 32 16 -13 16 -21 89 -14 127 8 43 34 25 88 -61 27 -44 56
-81 64 -82 9 -2 32 -1 53 1 l38 3 -30 31 c-16 17 -30 35 -30 40 0 5 -16 32
-35 58 -19 27 -31 49 -26 49 5 0 23 13 40 29 26 24 31 37 31 74 0 37 -6 51
-29 75 -17 16 -44 32 -62 36 -49 9 -209 7 -209 -3z m186 -46 c28 -19 38 -82
19 -111 -15 -24 -66 -46 -83 -35 -5 3 -13 41 -17 84 l-7 77 34 0 c18 0 43 -7
54 -15z"/>
<path d="M2346 3348 c-51 -161 -94 -285 -116 -330 l-26 -56 25 -5 c24 -5 46 5
46 21 0 4 7 28 14 55 l14 47 64 0 c60 0 64 -2 74 -27 7 -16 13 -43 14 -61 1
-18 5 -32 9 -32 3 0 36 0 74 1 51 0 62 2 44 10 -27 10 -65 89 -127 264 -41
116 -43 120 -74 123 -19 2 -33 -2 -35 -10z m64 -220 c0 -4 -19 -8 -43 -8 l-44
0 21 65 20 65 23 -57 c13 -31 23 -60 23 -65z"/>
<path d="M2630 3350 c0 -4 7 -13 15 -20 12 -10 15 -43 15 -174 0 -111 -4 -166
-12 -174 -16 -16 -10 -20 37 -22 64 -3 71 -2 57 12 -8 8 -12 62 -12 179 0 135
3 169 15 179 8 7 12 16 9 22 -7 10 -124 8 -124 -2z"/>
<path d="M2855 3343 c13 -28 17 -351 5 -358 -22 -14 -8 -25 32 -25 33 0 39 3
30 12 -8 8 -12 54 -12 140 l0 129 29 -33 c15 -18 63 -81 105 -140 62 -87 82
-108 102 -108 l24 0 0 184 c0 113 4 187 10 191 23 14 7 25 -40 25 -51 0 -60
-6 -38 -28 6 -6 13 -56 16 -119 l4 -108 -27 40 c-15 22 -57 79 -93 128 -65 87
-65 87 -110 87 -38 0 -43 -2 -37 -17z"/>
<path d="M3391 3328 c-13 -44 -96 -285 -112 -325 -8 -18 -18 -33 -24 -34 -5 0
-1 -4 9 -8 34 -13 66 -1 66 24 0 12 7 39 15 59 15 36 16 36 75 36 l60 0 17
-60 18 -60 53 0 52 0 -16 26 c-10 14 -45 103 -78 197 -61 171 -61 172 -93 175
-28 3 -33 0 -42 -30z m68 -175 l9 -33 -48 0 -49 0 15 48 c8 26 17 58 21 71 6
23 7 22 24 -15 11 -21 23 -53 28 -71z"/>
<path d="M4100 3353 c0 -5 7 -17 15 -27 12 -15 15 -53 15 -166 0 -113 -3 -151
-15 -166 -8 -10 -15 -22 -15 -26 0 -5 62 -8 139 -8 135 0 139 1 145 23 3 12 6
33 6 46 0 23 0 23 -35 -8 -30 -26 -44 -31 -89 -31 -63 0 -66 4 -66 96 l0 64
50 0 c28 0 50 -4 50 -10 0 -5 7 -10 15 -10 17 0 22 65 5 75 -5 3 -10 1 -10 -5
0 -7 -19 -10 -52 -8 l-53 3 0 60 0 60 47 3 c29 2 59 -3 79 -13 32 -17 32 -17
26 7 -4 12 -7 29 -7 36 0 9 -32 12 -125 12 -69 0 -125 -3 -125 -7z"/>
<path d="M4650 3351 c0 -6 5 -13 10 -16 6 -4 10 -74 10 -177 0 -151 -2 -172
-17 -184 -15 -11 4 -13 123 -14 l142 0 10 41 c6 22 7 38 4 37 -62 -33 -108
-49 -140 -46 l-37 3 -3 161 c-2 135 0 163 13 174 28 23 16 30 -50 30 -36 0
-65 -4 -65 -9z"/>
<path d="M4930 3355 c0 -4 15 -25 34 -46 18 -22 52 -76 75 -120 33 -66 41 -91
41 -135 0 -31 -5 -64 -10 -75 -10 -18 -7 -19 45 -19 52 0 55 1 45 19 -5 11
-10 49 -10 84 0 71 18 113 96 225 24 35 44 65 44 68 0 3 -19 4 -42 2 -24 -2
-42 -7 -40 -11 2 -4 -16 -43 -39 -87 l-42 -79 -34 69 c-19 39 -33 78 -31 87 3
15 -7 18 -64 21 -38 2 -68 0 -68 -3z"/>
<path d="M5365 3351 c-3 -6 -1 -11 6 -11 13 0 8 -331 -6 -363 -7 -16 -3 -18
33 -16 33 2 39 6 33 18 -5 9 -7 30 -6 46 2 17 4 71 4 120 l1 90 34 -80 c18
-44 44 -106 57 -137 40 -95 44 -90 125 137 l29 80 8 -80 c4 -44 6 -106 4 -137
-2 -32 0 -58 5 -59 4 0 22 -1 38 -1 62 0 62 0 49 25 -17 31 -26 334 -10 350
21 21 11 27 -43 27 l-54 0 -42 -102 c-23 -57 -45 -116 -50 -133 l-7 -30 -12
30 c-6 17 -31 75 -55 130 l-43 100 -45 3 c-26 2 -49 -2 -53 -7z"/>
<path d="M5876 3351 c-3 -5 1 -11 9 -15 23 -9 22 -332 -2 -358 -15 -17 -13
-18 52 -18 54 0 66 3 57 12 -7 7 -12 40 -12 78 0 64 1 66 26 68 97 8 164 55
164 116 0 92 -52 126 -194 126 -52 0 -97 -4 -100 -9z m187 -48 c8 -10 18 -35
22 -55 6 -31 3 -41 -19 -62 -15 -16 -36 -26 -55 -26 l-29 0 -4 76 c-2 42 -1
78 1 80 12 11 70 2 84 -13z"/>
<path d="M6255 3350 c-3 -6 1 -13 9 -16 24 -9 24 -329 -1 -356 -15 -17 -13
-18 50 -18 61 0 82 9 57 25 -5 3 -10 37 -10 76 l0 69 74 0 73 0 6 -57 c4 -39
2 -67 -7 -84 -13 -26 -12 -27 13 -32 46 -9 87 -2 81 14 -9 24 -5 353 4 372 7
15 2 17 -53 17 -34 0 -61 -2 -61 -4 0 -2 6 -15 13 -28 7 -14 11 -50 9 -91 l-4
-68 -71 3 -72 3 -3 69 c-2 39 2 74 8 80 5 5 10 16 10 23 0 16 -115 19 -125 3z"/>
<path d="M6825 3348 c-2 -7 -30 -91 -61 -186 -31 -96 -63 -180 -71 -187 -18
-19 0 -28 38 -20 20 5 29 11 25 21 -3 8 3 34 14 59 l19 45 55 0 c51 0 57 -2
71 -30 8 -16 16 -44 18 -62 1 -19 8 -33 15 -32 6 1 35 2 63 3 50 1 51 1 30 19
-22 17 -43 68 -112 267 -36 106 -39 110 -68 113 -19 2 -33 -2 -36 -10z m40
-153 c31 -73 31 -75 -19 -75 -25 0 -46 4 -46 10 0 19 45 120 48 107 2 -6 10
-25 17 -42z"/>
<path d="M7090 3350 c-8 -5 -12 -10 -8 -10 4 0 3 -12 -2 -26 -14 -37 -3 -48
27 -24 16 12 41 20 64 20 l39 0 0 -156 c0 -88 -4 -164 -10 -175 -10 -17 -7
-19 35 -19 25 0 48 1 51 3 4 1 6 80 5 175 l-2 172 34 0 c20 0 46 -9 61 -21 34
-27 42 -19 30 29 l-9 37 -150 2 c-86 2 -156 -1 -165 -7z"/>
<path d="M7510 3350 c-12 -8 -12 -10 3 -16 15 -5 17 -25 17 -178 0 -111 -4
-176 -11 -183 -8 -8 3 -12 41 -14 54 -4 81 3 61 15 -14 9 -15 342 -1 351 6 3
10 13 10 21 0 10 -13 14 -52 14 -29 0 -60 -4 -68 -10z"/>
<path d="M8206 3343 c5 -10 11 -87 14 -172 l5 -153 35 -29 c39 -33 82 -44 148
-36 37 4 53 12 78 40 37 40 42 70 46 255 l3 112 -49 0 c-44 0 -47 -2 -35 -17
11 -12 14 -52 13 -159 -1 -122 -3 -147 -18 -163 -22 -25 -44 -30 -83 -19 -51
13 -61 45 -64 198 -2 97 0 135 9 138 28 9 -3 22 -55 22 -49 0 -54 -2 -47 -17z"/>
<path d="M8640 3351 c0 -5 6 -11 13 -14 15 -5 11 -345 -5 -364 -8 -10 18 -13
125 -13 l135 0 15 38 c9 23 11 38 5 41 -6 2 -13 -1 -17 -6 -13 -21 -72 -43
-115 -43 l-45 0 -7 45 c-3 25 -3 61 0 80 6 30 11 35 35 35 15 0 36 -7 47 -15
30 -22 34 -18 34 32 0 37 -3 44 -12 35 -7 -7 -31 -12 -54 -12 l-42 0 -5 58
c-2 31 -3 60 0 65 2 4 24 7 49 7 45 0 83 -13 96 -34 13 -20 21 4 12 36 l-10
33 -127 3 c-75 1 -127 -1 -127 -7z"/>
<path d="M3237 2662 l-127 -3 16 -24 c13 -20 15 -51 12 -186 -2 -119 -6 -163
-15 -167 -7 -2 -13 -8 -13 -13 0 -5 60 -9 135 -9 l135 0 6 28 c3 15 8 35 11
45 6 23 -4 21 -39 -8 -23 -20 -41 -25 -83 -25 -61 0 -65 5 -65 86 l0 54 48 0
c26 0 53 -5 60 -12 9 -9 12 -1 12 36 0 41 -2 47 -14 37 -8 -7 -34 -11 -58 -9
l-43 3 0 60 0 60 54 3 c43 3 61 -1 84 -18 16 -12 30 -20 33 -18 2 3 -2 22 -9
44 l-12 39 -128 -3z"/>
<path d="M3490 2660 c-9 -5 -9 -9 -1 -14 16 -10 15 -358 -1 -374 -9 -9 -1 -12
36 -12 42 0 47 2 40 18 -5 9 -10 77 -12 151 l-3 134 33 -44 c19 -24 60 -82 93
-129 76 -110 94 -130 119 -130 21 0 21 3 18 170 -3 106 0 181 7 200 l10 31
-36 -3 -36 -3 1 -120 c1 -66 -2 -113 -5 -105 -7 15 -139 197 -158 216 -13 14
-89 24 -105 14z"/>
<path d="M4041 2661 c-5 -4 -35 -83 -66 -176 -31 -94 -65 -182 -76 -197 l-20
-28 45 0 c38 0 43 3 39 18 -2 11 2 35 11 55 l15 37 65 0 c63 0 66 -1 72 -27 4
-15 7 -40 7 -55 0 -27 2 -28 59 -28 61 0 67 4 44 29 -8 9 -32 68 -54 131 -74
214 -88 245 -110 246 -11 1 -25 -2 -31 -5z m59 -238 c0 -2 -20 -3 -45 -3 -25
0 -45 3 -45 6 0 4 10 34 22 66 l21 60 24 -64 c12 -34 23 -64 23 -65z"/>
<path d="M4284 2659 c-2 -3 -6 -26 -10 -50 l-7 -44 26 24 c19 17 39 25 69 25
l43 1 3 -167 c2 -110 -1 -168 -8 -168 -5 0 -10 -4 -10 -10 0 -6 28 -10 65 -10
l65 0 -15 24 c-13 19 -15 52 -13 177 l3 154 43 -1 c36 -1 48 -6 68 -30 l23
-29 0 40 c1 22 -3 45 -7 52 -8 13 -330 24 -338 12z"/>
<path d="M4815 2662 c-29 -3 -32 -8 -69 -120 -66 -198 -82 -242 -94 -254 -21
-21 -13 -28 26 -28 36 0 39 2 40 28 0 15 5 39 11 55 10 26 14 27 74 27 l64 0
11 -39 c7 -21 12 -46 12 -55 0 -13 12 -16 68 -16 65 1 66 1 46 18 -19 16 -121
275 -140 355 -7 32 -10 34 -49 29z m9 -159 c8 -27 17 -56 21 -65 6 -16 1 -18
-42 -18 l-49 0 20 65 c12 35 24 65 28 65 4 0 14 -21 22 -47z"/>
<path d="M6218 2662 c-10 -2 -18 -11 -18 -20 -1 -37 -110 -335 -131 -358 l-22
-24 53 0 c38 0 51 3 44 10 -8 8 -7 24 4 55 l14 45 68 0 67 0 11 -39 c7 -21 12
-46 12 -55 0 -13 11 -16 62 -16 l61 0 -20 23 c-19 21 -99 220 -130 324 -15 52
-32 64 -75 55z m34 -170 c26 -68 24 -72 -25 -72 l-44 0 21 65 c11 35 22 62 25
59 3 -3 13 -26 23 -52z"/>
<path d="M7060 2659 c-83 -33 -130 -105 -130 -199 0 -122 79 -205 200 -211 17
-1 19 -3 8 -6 -10 -2 -18 -11 -18 -18 0 -8 -9 -20 -20 -28 -24 -17 -16 -27 20
-27 35 0 50 17 50 56 0 24 5 34 20 39 26 8 60 52 60 77 0 18 -4 17 -35 -11
-43 -38 -93 -41 -137 -10 -39 28 -58 75 -58 144 0 148 105 214 187 118 l32
-38 0 30 c1 56 -9 74 -48 85 -45 12 -98 12 -131 -1z"/>
<path d="M7473 2663 c-13 -2 -23 -6 -23 -7 0 -6 -59 -191 -85 -266 -14 -41
-35 -87 -46 -102 l-20 -28 43 0 c40 0 43 2 44 28 1 15 7 39 13 55 10 25 14 27
71 27 60 0 61 0 76 -36 8 -19 12 -44 9 -55 -6 -17 -1 -19 59 -19 61 0 85 11
52 23 -12 5 -48 90 -131 315 -15 39 -30 71 -33 71 -4 -1 -17 -4 -29 -6z m25
-190 l21 -53 -46 0 c-38 0 -44 3 -39 16 4 9 11 37 18 61 12 50 16 48 46 -24z"/>
<path d="M2683 2642 c14 -16 17 -44 17 -182 0 -138 -3 -166 -17 -182 -15 -17
-13 -18 50 -18 38 0 67 4 67 10 0 6 -4 10 -10 10 -14 0 -13 133 2 148 14 14
48 -21 83 -88 42 -77 46 -80 111 -80 l58 0 -35 38 c-20 20 -52 60 -72 88 l-35
52 39 31 c34 28 39 37 39 72 0 90 -50 119 -206 119 -103 0 -106 -1 -91 -18z
m176 -37 c69 -35 31 -145 -50 -145 l-29 0 0 80 c0 79 0 80 25 80 15 0 39 -7
54 -15z"/>
<path d="M5300 2650 c0 -5 5 -10 10 -10 6 0 10 -65 10 -174 0 -106 -4 -177
-10 -181 -25 -16 -4 -25 56 -25 52 0 64 3 56 13 -14 18 -22 156 -9 164 16 10
89 4 104 -9 10 -8 13 -2 13 32 0 40 -1 41 -27 36 -107 -21 -103 -21 -103 15 0
19 3 51 6 72 l7 37 51 0 c39 0 58 -5 74 -20 l22 -21 0 41 0 40 -130 0 c-80 0
-130 -4 -130 -10z"/>
<path d="M5670 2639 c8 -13 11 -82 11 -187 -1 -144 -4 -169 -18 -179 -14 -11
-5 -13 55 -13 l73 0 -16 30 c-8 16 -15 52 -15 80 0 41 3 50 18 50 27 -1 45
-20 81 -85 19 -33 39 -63 45 -67 6 -4 38 -8 71 -8 l60 1 -28 21 c-16 11 -49
52 -74 90 -37 56 -43 72 -32 79 8 5 17 9 22 9 15 0 47 65 47 95 0 17 -7 41
-16 53 -29 42 -65 52 -184 52 -109 0 -111 0 -100 -21z m192 -37 c5 -5 11 -24
14 -44 8 -46 -26 -86 -79 -95 l-37 -6 4 79 c2 44 5 81 5 83 2 7 83 -7 93 -17z"/>
<path d="M6500 2651 c0 -6 5 -13 10 -16 15 -9 13 -348 -2 -363 -9 -9 -3 -12
28 -12 l39 0 -3 87 c-1 49 -3 112 -5 141 -1 28 1 51 5 50 7 -3 47 -57 143
-193 44 -61 66 -84 82 -85 22 0 22 1 25 200 l3 200 -44 0 c-38 0 -42 -2 -31
-15 8 -10 13 -55 15 -125 l2 -111 -51 78 c-110 167 -115 172 -168 173 -27 0
-48 -4 -48 -9z"/>
</g>
</svg>
